<?xml version="1.0" encoding="utf-8"?>
<!-- Generator: Adobe Illustrator 24.0.1, SVG Export Plug-In . SVG Version: 6.00 Build 0)  -->
<svg version="1.1" id="Layer_1" xmlns="http://www.w3.org/2000/svg" xmlns:xlink="http://www.w3.org/1999/xlink" x="0px" y="0px"
	 viewBox="0 0 44 44" style="enable-background:new 0 0 44 44;" xml:space="preserve">
<style type="text/css">
	.st0{opacity:0.3;}
</style>
<path class="st0" d="M26.4,20.4c0-0.1,0-0.2-0.1-0.2l-0.9-0.9c-0.1-0.1-0.2-0.1-0.3-0.1c-0.1,0-0.2,0-0.3,0.1L22,22.2l-2.9-2.9
	c-0.1-0.1-0.2-0.1-0.3-0.1c-0.1,0-0.2,0-0.3,0.1l-0.9,0.9c-0.1,0.1-0.1,0.1-0.1,0.2s0,0.2,0.1,0.3l4.1,4.1c0.1,0.1,0.1,0.1,0.2,0.1
	s0.2,0,0.2-0.1l4.1-4.1C26.4,20.6,26.4,20.5,26.4,20.4z"/>
</svg>
