<svg width="80" height="22" viewBox="0 0 80 22" fill="none" xmlns="http://www.w3.org/2000/svg">
<g clip-path="url(#clip0)">
<path d="M19.3475 10.858C19.1117 12.9197 17.3294 14.514 15.1907 14.4316C13.0739 14.3546 11.3629 12.6118 11.3135 10.4897C11.2587 8.21363 13.0849 6.3499 15.3443 6.3499C15.8652 6.3499 16.3588 6.44886 16.8194 6.63028C16.9675 6.68526 17.132 6.65227 17.2417 6.53682L18.0862 5.69017C18.1904 5.58571 18.163 5.41528 18.0314 5.34931C17.2033 4.90399 16.2546 4.66209 15.2455 4.67859C12.1745 4.72807 9.67384 7.25152 9.64094 10.3357C9.60803 13.5244 12.1745 16.1194 15.3497 16.1139C18.4591 16.1084 21.0147 13.5739 21.0476 10.4567C21.0531 10.0993 21.0202 9.75299 20.9653 9.41213C20.9489 9.30218 20.8118 9.26369 20.735 9.34066L19.4846 10.5941C19.4079 10.6656 19.3585 10.7591 19.3475 10.858Z" fill="#4D5B73"/>
<path d="M9.18563 4.78304C8.95531 4.61811 8.7195 4.53564 8.48917 4.53564C8.19304 4.53564 7.97916 4.67309 7.864 4.93698L4.88072 13.442L1.71648 4.94248C1.66164 4.75555 1.5026 4.53564 1.06389 4.53564C0.81711 4.53564 0.575816 4.61811 0.356457 4.78304C0.120647 4.95347 0 5.15689 0 5.38229C0 5.46476 0.0274198 5.55272 0.0822594 5.64619L3.95942 15.6081C3.64683 16.878 3.17521 17.9611 2.56649 18.8187C1.96326 19.6709 1.30518 20.0997 0.614203 20.0997C0.345489 20.0997 0.0274198 20.2482 0.0274198 20.9519C0.0274198 21.4961 0.312586 21.782 0.855498 21.782C1.23389 21.782 1.61228 21.7051 1.97423 21.5456C2.33068 21.3917 2.63778 21.2213 2.89005 21.0398C3.14779 20.8584 3.41651 20.5615 3.69619 20.1492L4.31039 19.1871C4.47491 18.9397 4.67233 18.5384 4.90266 17.9941C5.13847 17.4388 5.29202 17.0705 5.3688 16.8616L5.79655 15.6905L9.49273 5.65168C9.53112 5.59671 9.55306 5.51974 9.55306 5.40429C9.55306 5.16239 9.43241 4.95347 9.18563 4.78304Z" fill="#4D5B73"/>
<path d="M31.6755 4.86551C31.5055 4.73906 31.3026 4.67859 31.0723 4.67859C30.842 4.67859 30.6391 4.73906 30.4581 4.86551C30.2661 4.99746 30.1729 5.16789 30.1729 5.36031V11.7652C30.1729 12.5293 29.8877 13.2166 29.3174 13.8158C28.7526 14.4096 28.0726 14.7119 27.2938 14.7119C26.5151 14.7119 25.8351 14.4096 25.2703 13.8158C24.7054 13.2166 24.4148 12.5293 24.4148 11.7652V5.3878C24.4148 5.21187 24.3215 5.04694 24.1351 4.893C23.9596 4.75006 23.7567 4.67859 23.5428 4.67859C23.296 4.67859 23.0822 4.75006 22.9122 4.8985C22.7367 5.04694 22.6489 5.21187 22.6489 5.3878V11.7817C22.6489 13.0022 23.1096 14.0907 24.0144 15.0088C24.9248 15.9269 26.027 16.3943 27.2938 16.3943C28.5442 16.3943 29.641 15.9269 30.5568 15.0088C31.4726 14.0907 31.9387 13.0022 31.9387 11.7817V5.36581C31.9497 5.16789 31.8565 5.00296 31.6755 4.86551Z" fill="#4D5B73"/>
<path d="M33.4905 11.2758V9.6485C33.4905 8.13113 33.9402 6.90513 34.8395 5.97602C35.7389 5.0414 37.0825 4.5741 38.8648 4.5741C40.0109 4.5741 40.9706 4.77202 41.7438 5.16235C42.5171 5.55269 42.9009 6.02 42.9009 6.56427C42.9009 6.96561 42.7638 7.36694 42.4842 7.77377C42.2045 8.18061 41.87 8.38402 41.4696 8.38402C41.3435 8.38402 41.0529 8.29056 40.5977 8.10914C40.1425 7.92771 39.6709 7.83425 39.1773 7.83425C37.8557 7.83425 37.1976 8.4445 37.1976 9.6595V11.2703C37.1976 12.4853 37.8667 13.0956 39.2048 13.0956C39.6819 13.0956 40.1425 12.9911 40.5757 12.7822C41.0145 12.5733 41.3106 12.4688 41.4696 12.4688C41.9303 12.4688 42.3087 12.6613 42.6048 13.0406C42.9009 13.4254 43.049 13.8213 43.049 14.2391C43.049 14.7999 42.6432 15.2892 41.8316 15.7125C41.0199 16.1358 40.0493 16.3447 38.9196 16.3447C37.1044 16.3447 35.7444 15.8829 34.845 14.9538C33.9402 14.0357 33.4905 12.8097 33.4905 11.2758Z" fill="#4D5B73"/>
<path d="M44.4531 14.9648V5.84407C44.4531 5.50871 44.6231 5.23932 44.9686 5.03041C45.3086 4.82149 45.7419 4.71704 46.2683 4.71704C46.729 4.71704 47.1183 4.82149 47.4364 5.03041C47.7545 5.23932 47.9135 5.51421 47.9135 5.84957V6.7402C48.1658 6.16294 48.5606 5.65715 49.098 5.22283C49.63 4.78851 50.1839 4.5741 50.7597 4.5741H51.4507C51.8016 4.5741 52.1087 4.73353 52.372 5.0579C52.6352 5.37677 52.7668 5.75611 52.7668 6.19043C52.7668 6.64124 52.6352 7.02608 52.372 7.35045C52.1087 7.67482 51.8016 7.83425 51.4507 7.83425H50.7597C50.0742 7.83425 49.4709 8.16411 48.9445 8.82384C48.418 9.48357 48.1548 10.3412 48.1548 11.3913V14.9703C48.1548 15.2562 47.9683 15.5201 47.5899 15.7565C47.217 15.9929 46.7728 16.1138 46.2628 16.1138C45.7528 16.1138 45.3251 15.9984 44.9741 15.7675C44.6286 15.5311 44.4531 15.2672 44.4531 14.9648Z" fill="#4D5B73"/>
<path d="M54.0168 11.3253V5.86607C54.0168 5.58018 54.1978 5.31629 54.5652 5.07439C54.9327 4.83249 55.3659 4.71704 55.8759 4.71704C56.353 4.71704 56.7808 4.83799 57.1537 5.07439C57.5266 5.3108 57.713 5.57469 57.713 5.86057V11.3033C57.713 11.7651 57.8885 12.1775 58.2395 12.5458C58.5905 12.9142 58.9963 13.0956 59.4569 13.0956C59.9176 13.0956 60.3179 12.9142 60.6634 12.5458C61.0034 12.183 61.1789 11.7651 61.1789 11.3033V5.83858C61.1789 5.5362 61.3654 5.27231 61.7383 5.0524C62.1112 4.827 62.5444 4.71704 63.038 4.71704C63.5644 4.71704 64.0031 4.827 64.3541 5.0524C64.7051 5.27781 64.8806 5.5417 64.8806 5.84408V11.3253C64.8806 12.6668 64.3431 13.8378 63.2683 14.8439C62.1934 15.8499 60.9266 16.3502 59.4624 16.3502C57.9818 16.3502 56.704 15.8444 55.6291 14.8439C54.5543 13.8378 54.0168 12.6668 54.0168 11.3253Z" fill="#4D5B73"/>
<path d="M67.3649 2.76536C66.981 2.44099 66.7891 2.05615 66.7891 1.61633C66.7891 1.17651 66.981 0.797171 67.3649 0.478302C67.7488 0.159434 68.2094 0 68.7523 0C69.2788 0 69.7285 0.159434 70.1123 0.478302C70.4907 0.797171 70.6827 1.17651 70.6827 1.61633C70.6827 2.05615 70.4907 2.44099 70.1123 2.76536C69.7285 3.08972 69.2788 3.25466 68.7523 3.25466C68.2094 3.25466 67.7488 3.09522 67.3649 2.76536Z" fill="#4D5B73"/>
<path d="M66.9153 14.9648V5.84408C66.9153 5.50871 67.0853 5.23933 67.4253 5.03041C67.7653 4.8215 68.2095 4.71704 68.7524 4.71704C69.2789 4.71704 69.7176 4.8215 70.0795 5.03041C70.436 5.23933 70.617 5.50871 70.617 5.84408V14.9648C70.617 15.2507 70.4305 15.5146 70.0686 15.7565C69.7011 15.9929 69.2624 16.1138 68.7524 16.1138C68.226 16.1138 67.7872 15.9984 67.4363 15.7675C67.0853 15.5311 66.9153 15.2672 66.9153 14.9648Z" fill="#4D5B73"/>
<path d="M72.6899 12.128V1.11054C72.6899 0.797171 72.8819 0.53328 73.2658 0.318868C73.6496 0.104457 74.0664 0 74.5325 0C75.0261 0 75.4593 0.104457 75.8322 0.307873C76.2052 0.511289 76.3916 0.764184 76.3916 1.07206V4.71705H79.0897C79.3749 4.71705 79.5997 4.85999 79.7588 5.14587C79.9178 5.43176 80.0001 5.76712 80.0001 6.15196C80.0001 6.55329 79.9178 6.89415 79.7588 7.16904C79.5997 7.44942 79.3749 7.58687 79.0897 7.58687H76.3916V11.9851C76.3916 12.3149 76.4629 12.5403 76.6055 12.6668C76.7481 12.7932 77.0003 12.8592 77.3678 12.8592H78.3933C78.9033 12.8592 79.2926 13.0241 79.5613 13.3485C79.8301 13.6729 79.9671 14.0522 79.9671 14.4865C79.9671 14.9373 79.8301 15.3222 79.5613 15.641C79.2926 15.9599 78.9033 16.1193 78.3933 16.1193H77.3678C74.2529 16.1138 72.6899 14.7834 72.6899 12.128Z" fill="#4D5B73"/>
<path d="M15.7992 12.4139C15.5689 12.6448 15.1905 12.6448 14.9602 12.4139L12.964 10.4127C12.613 10.0609 12.624 9.47811 12.9969 9.13725C13.3479 8.81838 13.8908 8.85137 14.2253 9.18673L15.3824 10.3468L19.9506 5.76714C20.2851 5.43178 20.828 5.39879 21.179 5.71766C21.5519 6.05852 21.5628 6.63578 21.2119 6.99314L15.7992 12.4139Z" fill="#FF9C52"/>
</g>
<defs>
<clipPath id="clip0">
<rect width="80" height="21.7765" fill="white"/>
</clipPath>
</defs>
</svg>
